<svg xmlns="http://www.w3.org/2000/svg" version="1.1" xmlns:xlink="http://www.w3.org/1999/xlink" xmlns:svgjs="http://svgjs.dev/svgjs" viewBox="0 0 800 800" opacity="1"><g stroke-width="11" stroke="hsl(77.61, 43.43%, 49.22%)" fill="none" stroke-linecap="round" transform="matrix(1,0,0,1,-5,356.9683151245117)"><path d="M10,10C49.583333333333336,27.291666666666668,118.75,109.45833333333333,200,93C281.25,76.54166666666667,316.66666666666663,-64.625,400,-69C483.33333333333337,-73.375,516.6666666666666,63.041666666666664,600,72C683.3333333333334,80.95833333333333,758.3333333333334,-5.583333333333336,800,-26"></path><path d="M10,10C49.583333333333336,27.291666666666668,118.75,109.45833333333333,200,93C281.25,76.54166666666667,316.66666666666663,-64.625,400,-69C483.33333333333337,-73.375,516.6666666666666,63.041666666666664,600,72C683.3333333333334,80.95833333333333,758.3333333333334,-5.583333333333336,800,-26" transform="matrix(1,0,0,1,0,60)"></path><path d="M10,10C49.583333333333336,27.291666666666668,118.75,109.45833333333333,200,93C281.25,76.54166666666667,316.66666666666663,-64.625,400,-69C483.33333333333337,-73.375,516.6666666666666,63.041666666666664,600,72C683.3333333333334,80.95833333333333,758.3333333333334,-5.583333333333336,800,-26" transform="matrix(1,0,0,1,0,50)"></path><path d="M10,10C49.583333333333336,27.291666666666668,118.75,109.45833333333333,200,93C281.25,76.54166666666667,316.66666666666663,-64.625,400,-69C483.33333333333337,-73.375,516.6666666666666,63.041666666666664,600,72C683.3333333333334,80.95833333333333,758.3333333333334,-5.583333333333336,800,-26" transform="matrix(1,0,0,1,0,40)"></path><path d="M10,10C49.583333333333336,27.291666666666668,118.75,109.45833333333333,200,93C281.25,76.54166666666667,316.66666666666663,-64.625,400,-69C483.33333333333337,-73.375,516.6666666666666,63.041666666666664,600,72C683.3333333333334,80.95833333333333,758.3333333333334,-5.583333333333336,800,-26" transform="matrix(1,0,0,1,0,30)"></path><path d="M10,10C49.583333333333336,27.291666666666668,118.75,109.45833333333333,200,93C281.25,76.54166666666667,316.66666666666663,-64.625,400,-69C483.33333333333337,-73.375,516.6666666666666,63.041666666666664,600,72C683.3333333333334,80.95833333333333,758.3333333333334,-5.583333333333336,800,-26" transform="matrix(1,0,0,1,0,20)"></path><path d="M10,10C49.583333333333336,27.291666666666668,118.75,109.45833333333333,200,93C281.25,76.54166666666667,316.66666666666663,-64.625,400,-69C483.33333333333337,-73.375,516.6666666666666,63.041666666666664,600,72C683.3333333333334,80.95833333333333,758.3333333333334,-5.583333333333336,800,-26" transform="matrix(1,0,0,1,0,10)"></path></g></svg>